<svg width="70" height="70" viewBox="0 0 17 17" fill="none" xmlns="http://www.w3.org/2000/svg">
<path fill-rule="evenodd" clip-rule="evenodd" d="M8.5 17L11 14.5H14.5V11L17 8.5L14.5 6V2.5H11L8.5 0L6 2.5H2.5V6L0 8.5L2.5 11V14.5H6L8.5 17ZM12.0375 12.0375C11.0625 13.0125 9.88333 13.5 8.5 13.5C7.11667 13.5 5.9375 13.0125 4.9625 12.0375C3.9875 11.0625 3.5 9.88333 3.5 8.5C3.5 7.11667 3.9875 5.9375 4.9625 4.9625C5.9375 3.9875 7.11667 3.5 8.5 3.5C9.88333 3.5 11.0625 3.9875 12.0375 4.9625C13.0125 5.9375 13.5 7.11667 13.5 8.5C13.5 9.88333 13.0125 11.0625 12.0375 12.0375Z" fill="#865939"/>
<path d="M8.5 13.5C9.88333 13.5 11.0625 13.0125 12.0375 12.0375C13.0125 11.0625 13.5 9.88333 13.5 8.5C13.5 7.11667 13.0125 5.9375 12.0375 4.9625C11.0625 3.9875 9.88333 3.5 8.5 3.5C7.11667 3.5 5.9375 3.9875 4.9625 4.9625C3.9875 5.9375 3.5 7.11667 3.5 8.5C3.5 9.88333 3.9875 11.0625 4.9625 12.0375C5.9375 13.0125 7.11667 13.5 8.5 13.5Z" fill="#FFC047"/>
<path fill-rule="evenodd" clip-rule="evenodd" d="M8.5 17L11 14.5H14.5V11L17 8.5L14.5 6V2.5H11L8.5 0L6 2.5H2.5V6L0 8.5L2.5 11V14.5H6L8.5 17ZM12.0375 12.0375C11.0625 13.0125 9.88333 13.5 8.5 13.5C7.11667 13.5 5.9375 13.0125 4.9625 12.0375C3.9875 11.0625 3.5 9.88333 3.5 8.5C3.5 7.11667 3.9875 5.9375 4.9625 4.9625C5.9375 3.9875 7.11667 3.5 8.5 3.5C9.88333 3.5 11.0625 3.9875 12.0375 4.9625C13.0125 5.9375 13.5 7.11667 13.5 8.5C13.5 9.88333 13.0125 11.0625 12.0375 12.0375Z" fill="#865939"/>
<path d="M8.5 13.5C9.88333 13.5 11.0625 13.0125 12.0375 12.0375C13.0125 11.0625 13.5 9.88333 13.5 8.5C13.5 7.11667 13.0125 5.9375 12.0375 4.9625C11.0625 3.9875 9.88333 3.5 8.5 3.5C7.11667 3.5 5.9375 3.9875 4.9625 4.9625C3.9875 5.9375 3.5 7.11667 3.5 8.5C3.5 9.88333 3.9875 11.0625 4.9625 12.0375C5.9375 13.0125 7.11667 13.5 8.5 13.5Z" fill="#FFC047"/>
</svg>
