<svg width="80" height="80" viewBox="0 0 25 25" fill="none" xmlns="http://www.w3.org/2000/svg">
<g filter="url(#filter0_f_35_29)">
<path fill-rule="evenodd" clip-rule="evenodd" d="M12.5 21L15 18.5H18.5V15L21 12.5L18.5 10V6.5H15L12.5 4L10 6.5H6.5V10L4 12.5L6.5 15V18.5H10L12.5 21ZM16.0375 16.0375C15.0625 17.0125 13.8833 17.5 12.5 17.5C11.1167 17.5 9.9375 17.0125 8.9625 16.0375C7.9875 15.0625 7.5 13.8833 7.5 12.5C7.5 11.1167 7.9875 9.9375 8.9625 8.9625C9.9375 7.9875 11.1167 7.5 12.5 7.5C13.8833 7.5 15.0625 7.9875 16.0375 8.9625C17.0125 9.9375 17.5 11.1167 17.5 12.5C17.5 13.8833 17.0125 15.0625 16.0375 16.0375Z" fill="#865939"/>
<path d="M12.5 17.5C13.8833 17.5 15.0625 17.0125 16.0375 16.0375C17.0125 15.0625 17.5 13.8833 17.5 12.5C17.5 11.1167 17.0125 9.9375 16.0375 8.9625C15.0625 7.9875 13.8833 7.5 12.5 7.5C11.1167 7.5 9.9375 7.9875 8.9625 8.9625C7.9875 9.9375 7.5 11.1167 7.5 12.5C7.5 13.8833 7.9875 15.0625 8.9625 16.0375C9.9375 17.0125 11.1167 17.5 12.5 17.5Z" fill="#FFA800"/>
<path fill-rule="evenodd" clip-rule="evenodd" d="M12.5 21L15 18.5H18.5V15L21 12.5L18.5 10V6.5H15L12.5 4L10 6.5H6.5V10L4 12.5L6.5 15V18.5H10L12.5 21ZM16.0375 16.0375C15.0625 17.0125 13.8833 17.5 12.5 17.5C11.1167 17.5 9.9375 17.0125 8.9625 16.0375C7.9875 15.0625 7.5 13.8833 7.5 12.5C7.5 11.1167 7.9875 9.9375 8.9625 8.9625C9.9375 7.9875 11.1167 7.5 12.5 7.5C13.8833 7.5 15.0625 7.9875 16.0375 8.9625C17.0125 9.9375 17.5 11.1167 17.5 12.5C17.5 13.8833 17.0125 15.0625 16.0375 16.0375Z" fill="#865939"/>
<path d="M12.5 17.5C13.8833 17.5 15.0625 17.0125 16.0375 16.0375C17.0125 15.0625 17.5 13.8833 17.5 12.5C17.5 11.1167 17.0125 9.9375 16.0375 8.9625C15.0625 7.9875 13.8833 7.5 12.5 7.5C11.1167 7.5 9.9375 7.9875 8.9625 8.9625C7.9875 9.9375 7.5 11.1167 7.5 12.5C7.5 13.8833 7.9875 15.0625 8.9625 16.0375C9.9375 17.0125 11.1167 17.5 12.5 17.5Z" fill="#FFA800"/>
</g>
<path fill-rule="evenodd" clip-rule="evenodd" d="M12.5 21L15 18.5H18.5V15L21 12.5L18.5 10V6.5H15L12.5 4L10 6.5H6.5V10L4 12.5L6.5 15V18.5H10L12.5 21ZM16.0375 16.0375C15.0625 17.0125 13.8833 17.5 12.5 17.5C11.1167 17.5 9.9375 17.0125 8.9625 16.0375C7.9875 15.0625 7.5 13.8833 7.5 12.5C7.5 11.1167 7.9875 9.9375 8.9625 8.9625C9.9375 7.9875 11.1167 7.5 12.5 7.5C13.8833 7.5 15.0625 7.9875 16.0375 8.9625C17.0125 9.9375 17.5 11.1167 17.5 12.5C17.5 13.8833 17.0125 15.0625 16.0375 16.0375Z" fill="#865939"/>
<path d="M12.5 17.5C13.8833 17.5 15.0625 17.0125 16.0375 16.0375C17.0125 15.0625 17.5 13.8833 17.5 12.5C17.5 11.1167 17.0125 9.9375 16.0375 8.9625C15.0625 7.9875 13.8833 7.5 12.5 7.5C11.1167 7.5 9.9375 7.9875 8.9625 8.9625C7.9875 9.9375 7.5 11.1167 7.5 12.5C7.5 13.8833 7.9875 15.0625 8.9625 16.0375C9.9375 17.0125 11.1167 17.5 12.5 17.5Z" fill="#FFC047"/>
<path fill-rule="evenodd" clip-rule="evenodd" d="M12.5 21L15 18.5H18.5V15L21 12.5L18.5 10V6.5H15L12.5 4L10 6.5H6.5V10L4 12.5L6.5 15V18.5H10L12.5 21ZM16.0375 16.0375C15.0625 17.0125 13.8833 17.5 12.5 17.5C11.1167 17.5 9.9375 17.0125 8.9625 16.0375C7.9875 15.0625 7.5 13.8833 7.5 12.5C7.5 11.1167 7.9875 9.9375 8.9625 8.9625C9.9375 7.9875 11.1167 7.5 12.5 7.5C13.8833 7.5 15.0625 7.9875 16.0375 8.9625C17.0125 9.9375 17.5 11.1167 17.5 12.5C17.5 13.8833 17.0125 15.0625 16.0375 16.0375Z" fill="#865939"/>
<path d="M12.5 17.5C13.8833 17.5 15.0625 17.0125 16.0375 16.0375C17.0125 15.0625 17.5 13.8833 17.5 12.5C17.5 11.1167 17.0125 9.9375 16.0375 8.9625C15.0625 7.9875 13.8833 7.5 12.5 7.5C11.1167 7.5 9.9375 7.9875 8.9625 8.9625C7.9875 9.9375 7.5 11.1167 7.5 12.5C7.5 13.8833 7.9875 15.0625 8.9625 16.0375C9.9375 17.0125 11.1167 17.5 12.5 17.5Z" fill="#FFC047"/>
<defs>
<filter id="filter0_f_35_29" x="0" y="0" width="25" height="25" filterUnits="userSpaceOnUse" color-interpolation-filters="sRGB">
<feFlood flood-opacity="0" result="BackgroundImageFix"/>
<feBlend mode="normal" in="SourceGraphic" in2="BackgroundImageFix" result="shape"/>
<feGaussianBlur stdDeviation="2" result="effect1_foregroundBlur_35_29"/>
</filter>
</defs>
</svg>
